HIERARCHY
ROOT Hips
{
	OFFSET 16.857300 39.481499 -7.567760 
	CHANNELS 6 Xposition Yposition Zposition Zrotation Xrotation Yrotation
	JOINT LeftHip
	{
		OFFSET 3.430000 0.000000 0.000000 
		CHANNELS 6 Xposition Yposition Zposition Zrotation Xrotation Yrotation
		JOINT LeftKnee
		{
			OFFSET 0.000000 -18.469999 0.000000 
			CHANNELS 6 Xposition Yposition Zposition Zrotation Xrotation Yrotation
			JOINT LeftAnkle
			{
				OFFSET 0.000000 -17.950001 0.000000 
				CHANNELS 6 Xposition Yposition Zposition Zrotation Xrotation Yrotation
				End Site
				{
					OFFSET 0.000000 -3.120000 0.000000 
				}
			}
		}
	}
	JOINT RightHip
	{
		OFFSET -3.430000 0.000000 0.000000 
		CHANNELS 6 Xposition Yposition Zposition Zrotation Xrotation Yrotation
		JOINT RightKnee
		{
			OFFSET 0.000000 -18.469999 0.000000 
			CHANNELS 6 Xposition Yposition Zposition Zrotation Xrotation Yrotation
			JOINT RightAnkle
			{
				OFFSET 0.000000 -17.950001 0.000000 
				CHANNELS 6 Xposition Yposition Zposition Zrotation Xrotation Yrotation
				End Site
				{
					OFFSET 0.000000 -3.120000 0.000000 
				}
			}
		}
	}
	JOINT Chest
	{
		OFFSET 0.000000 4.570000 0.000000 
		CHANNELS 6 Xposition Yposition Zposition Zrotation Xrotation Yrotation
		JOINT CS_BVH
		{
			OFFSET 0.000000 6.570000 0.000000 
			CHANNELS 6 Xposition Yposition Zposition Zrotation Xrotation Yrotation
			JOINT LeftCollar
			{
				OFFSET 1.060000 4.190000 1.760000 
				CHANNELS 6 Xposition Yposition Zposition Zrotation Xrotation Yrotation
				JOINT LeftShoulder
				{
					OFFSET 5.810000 0.000000 0.000000 
					CHANNELS 6 Xposition Yposition Zposition Zrotation Xrotation Yrotation
					JOINT LeftElbow
					{
						OFFSET 0.000000 -12.080000 0.000000 
						CHANNELS 6 Xposition Yposition Zposition Zrotation Xrotation Yrotation
						JOINT LeftWrist
						{
							OFFSET 0.000000 -9.820000 0.000000 
							CHANNELS 6 Xposition Yposition Zposition Zrotation Xrotation Yrotation
							End Site
							{
								OFFSET 0.000000 -7.370000 0.000000 
							}
						}
					}
				}
			}
			JOINT RightCollar
			{
				OFFSET -1.060000 4.190000 1.760000 
				CHANNELS 6 Xposition Yposition Zposition Zrotation Xrotation Yrotation
				JOINT RightShoulder
				{
					OFFSET -6.060000 0.000000 0.000000 
					CHANNELS 6 Xposition Yposition Zposition Zrotation Xrotation Yrotation
					JOINT RightElbow
					{
						OFFSET 0.000000 -11.080000 0.000000 
						CHANNELS 6 Xposition Yposition Zposition Zrotation Xrotation Yrotation
						JOINT RightWrist
						{
							OFFSET 0.000000 -9.820000 0.000000 
							CHANNELS 6 Xposition Yposition Zposition Zrotation Xrotation Yrotation
							End Site
							{
								OFFSET 0.000000 -7.140010 0.000000 
							}
						}
					}
				}
			}
			JOINT Neck
			{
				OFFSET 0.000000 4.050000 0.000000 
				CHANNELS 6 Xposition Yposition Zposition Zrotation Xrotation Yrotation
				JOINT Head
				{
					OFFSET 0.000000 5.190000 0.000000 
					CHANNELS 6 Xposition Yposition Zposition Zrotation Xrotation Yrotation
					End Site
					{
						OFFSET 0.000000 4.140010 0.000000 
					}
				}
			}
		}
	}
}
MOTION
Frames: 7
Frame Time: 0.033333
-43.687099 33.638901 14.026500 -8.465248 -4.910208 -7.464819 3.430000 -0.000000 0.000000 18.006901 -21.539900 12.869200 0.000000 -18.469999 -0.000000 26.210100 63.084900 -23.510000 0.000000 -17.950001 -0.000000 1.292030 -7.160970 -0.273060 -3.430000 0.000000 0.000000 -25.483400 -18.008600 -24.692101 0.000000 -18.469999 -0.000000 -11.438800 40.357300 12.216300 0.000000 -17.950001 -0.000000 -0.442510 -10.873400 0.464223 -0.000000 4.570000 0.000000 11.884700 17.497200 -1.681120 -0.000000 6.570000 0.000000 -5.571820 28.580200 3.763720 1.060000 4.190000 1.760000 -6.544590 -0.419225 -4.028370 5.810000 -0.000000 0.000000 5.033130 -14.727700 49.235500 -0.000000 -12.080000 -0.000000 -20.246901 -20.072201 -55.949600 -0.000000 -9.820000 0.000000 11.688900 -2.515270 -0.951848 -1.060000 4.190000 1.760000 3.426180 -0.631034 7.800820 -6.060000 0.000000 0.000000 -36.004200 -2.212720 -68.276299 -0.000000 -11.080000 -0.000000 19.061001 0.027609 76.015900 -0.000000 -9.820000 -0.000000 -10.793400 1.196750 3.382980 -0.000000 4.050000 0.000000 -13.089600 -45.671101 12.436800 -0.000000 5.190000 0.000000 4.886800 0.924370 11.076800 
-42.699001 33.570900 14.120900 -7.674765 -5.666569 -5.843185 3.430000 -0.000000 0.000000 16.046200 -21.498301 12.932200 0.000000 -18.469999 -0.000000 25.008301 63.452099 -22.955299 0.000000 -17.950001 -0.000000 1.197230 -7.394190 -0.273228 -3.430000 0.000000 0.000000 -25.468100 -15.785100 -23.270399 0.000000 -18.469999 -0.000000 -13.260600 37.556198 12.541200 0.000000 -17.950001 -0.000000 -0.456147 -10.650100 0.463984 -0.000000 4.570000 0.000000 10.208800 17.265100 -0.908512 -0.000000 6.570000 0.000000 -6.450760 29.012899 4.564860 1.060000 4.190000 1.760000 -6.613280 -0.415712 -4.112480 5.810000 -0.000000 0.000000 5.586200 -17.195700 48.396198 -0.000000 -12.080000 -0.000000 -18.747601 -19.126499 -57.238499 -0.000000 -9.820000 0.000000 11.936000 -2.703950 -1.002910 -1.060000 4.190000 1.760000 3.541990 -0.628200 7.471150 -6.060000 0.000000 0.000000 -34.070202 -2.110170 -67.969498 -0.000000 -11.080000 -0.000000 19.885799 -0.632570 76.048698 -0.000000 -9.820000 -0.000000 -11.164100 1.127350 3.329970 -0.000000 4.050000 0.000000 -13.429500 -45.110298 13.288100 -0.000000 5.190000 0.000000 4.630330 2.604520 11.723400 
-41.902302 33.637901 14.228100 -7.400580 -6.515830 -4.721170 3.430000 -0.000000 0.000000 14.827800 -20.550100 13.072700 0.000000 -18.469999 -0.000000 23.956900 62.923801 -22.258600 0.000000 -17.950001 -0.000000 1.063650 -7.580450 -0.273721 -3.430000 0.000000 0.000000 -23.798901 -14.263600 -20.611200 0.000000 -18.469999 -0.000000 -15.313600 36.795200 13.201000 0.000000 -17.950001 -0.000000 -0.565379 -10.391100 0.461439 -0.000000 4.570000 0.000000 8.971780 16.949301 -0.104897 -0.000000 6.570000 0.000000 -7.672270 29.975500 5.651900 1.060000 4.190000 1.760000 -6.421760 -0.428513 -4.064730 5.810000 -0.000000 0.000000 5.872630 -19.428101 47.210999 -0.000000 -12.080000 -0.000000 -18.091400 -18.938999 -57.803699 -0.000000 -9.820000 0.000000 12.060200 -2.772210 -0.950527 -1.060000 4.190000 1.760000 3.494660 -0.634263 7.213530 -6.060000 0.000000 0.000000 -32.374001 -3.173920 -67.296303 -0.000000 -11.080000 -0.000000 20.331200 -1.947590 76.179001 -0.000000 -9.820000 -0.000000 -12.201500 0.785478 3.406840 -0.000000 4.050000 0.000000 -13.650600 -44.309799 14.139400 -0.000000 5.190000 0.000000 4.459730 3.649780 12.352800 
-41.248001 33.861595 14.310000 -7.293530 -6.988621 -3.298050 3.430000 -0.000000 0.000000 13.578400 -19.668501 12.792800 0.000000 -18.469999 -0.000000 23.009701 61.517700 -21.367100 0.000000 -17.950001 -0.000000 0.924192 -7.729020 -0.274602 -3.430000 0.000000 0.000000 -21.335800 -13.675100 -17.894199 0.000000 -18.469999 -0.000000 -16.710199 38.863800 14.126600 0.000000 -17.950001 -0.000000 -0.777064 -10.274500 0.458556 -0.000000 4.570000 0.000000 7.721020 16.260201 0.498932 -0.000000 6.570000 0.000000 -8.336960 31.061501 6.247540 1.060000 4.190000 1.760000 -6.010650 -0.465335 -3.889300 5.810000 -0.000000 0.000000 5.786840 -20.963600 45.797298 -0.000000 -12.080000 -0.000000 -18.380699 -19.625799 -57.669300 -0.000000 -9.820000 0.000000 12.015600 -2.729810 -0.917204 -1.060000 4.190000 1.760000 3.321430 -0.651748 7.010220 -6.060000 0.000000 0.000000 -31.104200 -5.030290 -66.131104 -0.000000 -11.080000 -0.000000 20.428301 -2.041950 76.469002 -0.000000 -9.820000 -0.000000 -13.197700 0.323157 3.672200 -0.000000 4.050000 0.000000 -13.927100 -43.377102 14.601400 -0.000000 5.190000 0.000000 4.539770 4.067610 12.610400 
-40.691002 34.220695 14.332100 -7.030470 -6.836770 -1.295650 3.430000 -0.000000 0.000000 11.778400 -19.581900 11.843500 0.000000 -18.469999 -0.000000 22.422001 59.761501 -20.594500 0.000000 -17.950001 -0.000000 0.788568 -7.904910 -0.275801 -3.430000 0.000000 0.000000 -18.556101 -13.884800 -15.778800 0.000000 -18.469999 -0.000000 -16.972401 42.605900 14.926800 0.000000 -17.950001 -0.000000 -1.048330 -10.268300 0.457123 -0.000000 4.570000 0.000000 6.274960 15.197400 0.939485 -0.000000 6.570000 0.000000 -8.422000 31.924700 6.316750 1.060000 4.190000 1.760000 -5.654700 -0.496513 -3.731020 5.810000 -0.000000 0.000000 5.716730 -22.079300 44.464001 -0.000000 -12.080000 -0.000000 -18.892000 -20.620100 -57.505901 -0.000000 -9.820000 0.000000 11.913300 -2.670440 -0.950866 -1.060000 4.190000 1.760000 3.102030 -0.673954 6.836510 -6.060000 0.000000 0.000000 -29.959200 -6.833360 -64.872902 -0.000000 -11.080000 -0.000000 20.132799 -2.278570 78.236702 -0.000000 -9.820000 -0.000000 -13.533600 0.059410 3.917360 -0.000000 4.050000 0.000000 -14.252000 -42.296101 14.427200 -0.000000 5.190000 0.000000 4.781140 3.977040 12.293000 
-40.192402 34.690102 14.319500 -6.796300 -6.356670 0.702217 3.430000 -0.000000 0.000000 9.894250 -19.676901 10.717500 0.000000 -18.469999 -0.000000 22.006001 57.669800 -19.799299 0.000000 -17.950001 -0.000000 0.682188 -8.068520 -0.277177 -3.430000 0.000000 0.000000 -15.316000 -14.605400 -14.143500 0.000000 -18.469999 -0.000000 -16.298401 46.444500 15.273800 0.000000 -17.950001 -0.000000 -1.306360 -10.324300 0.459426 -0.000000 4.570000 0.000000 5.045700 14.176000 1.317050 -0.000000 6.570000 0.000000 -8.535520 32.437099 6.381750 1.060000 4.190000 1.760000 -5.447160 -0.513508 -3.653160 5.810000 -0.000000 0.000000 5.710700 -22.857700 43.191601 -0.000000 -12.080000 -0.000000 -19.558500 -21.885900 -57.404202 -0.000000 -9.820000 0.000000 11.852000 -2.633840 -0.968215 -1.060000 4.190000 1.760000 2.918490 -0.691931 6.696800 -6.060000 0.000000 0.000000 -28.573200 -8.131580 -63.717800 -0.000000 -11.080000 -0.000000 19.728500 -3.500270 81.180496 -0.000000 -9.820000 -0.000000 -13.329300 0.087594 3.964740 -0.000000 4.050000 0.000000 -14.450400 -41.311401 13.778700 -0.000000 5.190000 0.000000 5.209990 3.712550 11.522100 
-39.712299 35.247299 14.335900 -6.652700 -6.050865 2.156509 3.430000 -0.000000 0.000000 8.412530 -18.991501 10.059100 0.000000 -18.469999 -0.000000 21.271799 54.976898 -18.632099 0.000000 -17.950001 -0.000000 0.630667 -8.152140 -0.278568 -3.430000 0.000000 0.000000 -11.800000 -15.405300 -12.843100 0.000000 -18.469999 -0.000000 -15.093000 49.521500 15.139500 0.000000 -17.950001 -0.000000 -1.517450 -10.364700 0.461759 -0.000000 4.570000 0.000000 4.093240 13.647900 1.660980 -0.000000 6.570000 0.000000 -8.877430 32.621799 6.649720 1.060000 4.190000 1.760000 -5.246380 -0.529231 -3.587040 5.810000 -0.000000 0.000000 5.472670 -22.802999 41.657501 -0.000000 -12.080000 -0.000000 -20.997299 -24.007900 -57.133801 -0.000000 -9.820000 0.000000 11.797100 -2.581380 -0.925917 -1.060000 4.190000 1.760000 2.779280 -0.705429 6.577410 -6.060000 0.000000 0.000000 -26.801800 -9.062880 -62.245701 -0.000000 -11.080000 -0.000000 20.035801 -5.389460 83.138100 -0.000000 -9.820000 -0.000000 -12.918000 0.278050 3.860890 -0.000000 4.050000 0.000000 -14.510800 -40.593498 12.801300 -0.000000 5.190000 0.000000 5.861870 3.388540 10.428000 
